HIERARCHY
ROOT Hips
{
  OFFSET -147.801 11.1882 83.2652
  CHANNELS 6 Xposition Yposition Zposition Zrotation Xrotation Yrotation
  JOINT ToSpine
  {
    OFFSET -2.69724 7.43032 -0.144315
    CHANNELS 3 Zrotation Xrotation Yrotation
    JOINT Spine
    {
      OFFSET -0.0310711 10.7595 1.96963
      CHANNELS 3 Zrotation Xrotation Yrotation
      JOINT Spine1
      {
        OFFSET 19.9056 3.91189 0.764692
        CHANNELS 3 Zrotation Xrotation Yrotation
        JOINT Neck
        {
          OFFSET 25.9749 7.03908 -0.130764
          CHANNELS 3 Zrotation Xrotation Yrotation
          JOINT Head
          {
            OFFSET 9.52751 0.295786 -0.907742
            CHANNELS 3 Zrotation Xrotation Yrotation
            End Site
            {
              OFFSET 16.4037 0.713936 2.7358
            }
          }
        }
        JOINT LeftShoulder
        {
          OFFSET 17.7449 4.33886 11.7777
          CHANNELS 3 Zrotation Xrotation Yrotation
          JOINT LeftArm
          {
            OFFSET 0.911315 1.27913 9.80584
            CHANNELS 3 Zrotation Xrotation Yrotation
            JOINT LeftForeArm
            {
              OFFSET 28.6126 1.18197 -3.53199
              CHANNELS 3 Zrotation Xrotation Yrotation
              JOINT LeftHand
              {
                OFFSET 27.5088 0.0218783 0.327423
                CHANNELS 3 Zrotation Xrotation Yrotation
                End Site
                {
                  OFFSET 18.6038 -0.000155887 0.382096
                }
              }
            }
          }
        }
        JOINT RightShoulder
        {
          OFFSET 17.1009 2.89543 -12.2328
          CHANNELS 3 Zrotation Xrotation Yrotation
          JOINT RightArm
          {
            OFFSET 1.4228 0.178766 -10.211
            CHANNELS 3 Zrotation Xrotation Yrotation
            JOINT RightForeArm
            {
              OFFSET 28.733 1.87905 2.64907
              CHANNELS 3 Zrotation Xrotation Yrotation
              JOINT RightHand
              {
                OFFSET 27.4588 0.290562 -0.101845
                CHANNELS 3 Zrotation Xrotation Yrotation
                End Site
                {
                  OFFSET 17.8396 -0.255518 -0.000602873
                }
              }
            }
          }
        }
      }
    }
  }
  JOINT LeftUpLeg
  {
    OFFSET -5.61296 -2.22332 -10.2353
    CHANNELS 3 Zrotation Xrotation Yrotation
    JOINT LeftLeg
    {
      OFFSET 2.56703 -44.7417 -7.93097
      CHANNELS 3 Zrotation Xrotation Yrotation
      JOINT LeftFoot
      {
        OFFSET 3.16933 -46.5642 -3.96578
        CHANNELS 3 Zrotation Xrotation Yrotation
        JOINT LeftToeBase
        {
          OFFSET 0.346054 -6.02161 12.8035
          CHANNELS 3 Zrotation Xrotation Yrotation
          End Site
          {
            OFFSET 0.134235 -1.35082 5.13018
          }
        }
      }
    }
  }
  JOINT RightUpLeg
  {
    OFFSET -5.7928 -1.72406 10.6446
    CHANNELS 3 Zrotation Xrotation Yrotation
    JOINT RightLeg
    {
      OFFSET -2.57161 -44.7178 -7.85259
      CHANNELS 3 Zrotation Xrotation Yrotation
      JOINT RightFoot
      {
        OFFSET -3.10148 -46.5936 -4.03391
        CHANNELS 3 Zrotation Xrotation Yrotation
        JOINT RightToeBase
        {
          OFFSET -0.0828122 -6.13587 12.8035
          CHANNELS 3 Zrotation Xrotation Yrotation
          End Site
          {
            OFFSET -0.131328 -1.35082 5.13018
          }
        }
      }
    }
  }
}
MOTION
Frames:	15
Frame Time:	0.0333333
-147.853 10.8804 82.8684 10.0749 14.4877 -93.2184 -70.1915 0 88.8779 88.6973 68.2172 0.0796527 -5.84668 17.2963 4.12518 -176.057 22.4272 -164.81 179.922 64.3583 -134.884 0.960807 -6.82001 -8.06273 -150.646 4.89011 -120.239 16.7003 -0.653613 -93.5221 -2.04903 0.124395 -5.36676 -0.46886 -5.1698 -6.85401 -147.993 -4.56776 126.982 4.66244 -0.936074 87.7471 18.0013 -0.837029 -5.83707 -53.1901 2.86246 84.1022 -1.22217 33.2027 -0.661971 1.54833 -9.68201 -0.871195 -41.6425 -48.6695 -39.4723 -56.2155 -7.73076 91.853 1.82609 37.0891 5.51706 -6.06305 -10.7936 1.10819 -9.98454 -47.2268 -1.19614 
-147.86 10.906 82.8347 10.0251 14.445 -93.2207 -70.1915 0 88.8779 89.0255 68.2502 -0.371742 -5.97707 17.2693 4.32961 -176.031 22.4313 -164.651 179.681 64.3431 -134.576 0.963081 -6.81079 -8.14967 -150.677 4.90292 -120.271 16.6331 -0.648117 -93.5204 -2.07952 0.124177 -5.47465 -0.485491 -5.24103 -6.97926 -147.863 -4.3676 127.155 4.60256 -0.936111 87.6923 17.9389 -0.863775 -6.03236 -53.2592 2.86136 84.1741 -1.26713 33.2353 -1.01985 1.26777 -9.76662 -0.867198 -41.0669 -49.3842 -37.3622 -56.1764 -7.74983 91.8552 1.83999 37.2017 5.58061 -6.18399 -10.8773 1.11308 -9.97821 -47.2225 -1.18042 
-147.858 10.8957 82.8525 10.0745 14.412 -93.206 -70.1915 0 88.8779 89.0194 68.2077 -0.289771 -5.93128 17.2601 4.20943 -175.82 22.4719 -164.59 179.573 64.3336 -134.253 0.971613 -7.08186 -8.34588 -150.796 4.51245 -120.383 16.4252 -0.607403 -93.4244 -2.08748 0.124231 -5.68542 -0.43763 -4.86608 -7.2985 -147.954 -4.4208 126.441 4.78404 -0.937443 87.8974 17.6881 -0.849708 -6.02336 -53.2682 2.91562 84.3039 -1.38433 33.39 -2.09656 0.415992 -10.2749 -0.871331 -39.5516 -50.1752 -33.5514 -56.2973 -7.82154 91.6388 1.8405 37.0752 5.81495 -6.30823 -10.8193 1.11541 -10.0104 -47.1298 -1.34867 
-147.858 10.9029 82.8616 10.0979 14.3729 -93.224 -70.1915 0 88.8779 89.134 68.1977 -0.382287 -5.94713 17.2763 4.11165 -175.636 22.5039 -164.732 179.856 64.3535 -134.427 0.985983 -7.83461 -8.76157 -151.121 3.40972 -120.687 15.9841 -0.498826 -93.1117 -2.03823 0.123192 -5.89839 -0.446877 -4.98969 -7.01344 -147.885 -4.24608 126.964 4.95393 -0.946539 87.6961 17.7674 -0.866949 -6.11116 -53.2506 3.22331 85.0639 -1.44175 33.3832 -2.70163 0.827341 -10.5902 -0.905748 -38.8906 -49.6527 -33.2827 -56.3665 -7.8039 91.7138 1.8382 37.0252 5.74684 -6.28675 -10.8288 1.11497 -10.0275 -47.0756 -1.44197 
-147.849 10.8953 82.8769 10.1011 14.3752 -93.2419 -70.1915 0 88.8779 88.9805 68.2153 -0.252098 -5.91641 17.2885 4.12516 -175.433 22.5578 -164.784 179.981 64.3819 -134.465 0.98757 -7.76206 -8.82373 -151.058 3.50593 -120.77 15.9669 -0.482309 -93.0497 -1.89068 0.116328 -6.1076 -0.424924 -4.84204 -7.10695 -147.938 -4.18947 126.736 4.99796 -0.948306 87.7135 17.5642 -0.846447 -6.04284 -53.2298 3.34029 85.3412 -1.48053 33.39 -3.11037 0.649885 -10.3965 -0.887517 -38.8205 -49.6668 -33.1411 -56.376 -7.82689 91.6983 1.82229 36.983 5.67684 -6.16002 -10.7682 1.11043 -9.9533 -47.2215 -1.10621 
-147.874 10.9166 82.8657 10.1117 14.4067 -93.235 -70.1915 0 88.8779 88.7495 68.2253 -0.0378131 -5.83922 17.2979 4.13521 -175.296 22.606 -164.949 -179.762 64.4223 -134.73 0.971341 -7.39293 -8.24315 -150.878 4.26692 -120.347 16.1464 -0.503662 -93.0862 -1.7387 0.108637 -6.32473 -0.43712 -4.95433 -7.09295 -148.034 -4.57204 126.609 5.24 -0.955609 87.7639 17.1957 -0.809618 -5.91959 -53.2343 3.22249 85.0586 -1.44406 33.3262 -2.78968 0.696951 -10.3537 -0.886063 -38.5927 -49.7993 -32.5389 -56.2991 -7.78748 91.7545 1.83605 37.0705 5.66856 -6.21953 -10.7902 1.11247 -9.95794 -47.0425 -1.25792 
-147.863 10.9021 82.8763 10.1094 14.3697 -93.2337 -70.1915 0 88.8779 88.8354 68.2579 -0.0339424 -5.81683 17.3669 4.03615 -175.199 22.6745 -165.087 -179.535 64.4901 -135.028 0.975978 -6.95821 -8.50869 -150.653 4.84979 -120.756 16.3971 -0.542247 -93.1791 -1.60676 0.100427 -6.41762 -0.473636 -5.10306 -7.22713 -147.976 -4.64949 126.55 5.40238 -0.962897 87.733 17.2963 -0.810978 -5.89392 -53.2838 3.16967 84.945 -1.4344 33.3207 -2.71455 0.812862 -10.2482 -0.882534 -38.6574 -49.9264 -32.4461 -56.3589 -7.82602 91.6785 1.83109 37.0239 5.67879 -6.18071 -10.7868 1.11134 -9.86538 -47.1168 -0.921393 
-147.847 10.8875 82.8539 10.1226 14.3585 -93.214 -70.1915 0 88.8779 88.8971 68.2509 -0.125978 -5.87683 17.3327 4.12204 -175.002 22.6956 -165.258 -179.137 64.5124 -135.468 0.950488 -6.01042 -8.03561 -150.189 6.30138 -120.411 16.9488 -0.674283 -93.5336 -1.34287 0.0815229 -6.41546 -0.489547 -5.24712 -7.06414 -147.963 -4.84823 126.784 5.40197 -0.965562 87.6441 17.0553 -0.774598 -5.72574 -53.2298 3.22665 85.018 -1.46152 33.4671 -2.82926 0.615102 -10.388 -0.885854 -38.283 -49.7468 -32.0929 -56.3793 -7.785 91.7481 1.83162 37.0628 5.64244 -6.20884 -10.8068 1.11248 -9.88752 -47.0533 -1.03618 
-147.864 10.9012 82.8567 10.1241 14.3806 -93.234 -70.1915 0 88.8779 88.8224 68.2674 -0.072607 -5.86223 17.358 4.08537 -174.925 22.7278 -165.476 -178.865 64.5431 -135.856 0.969674 -6.44585 -8.46336 -150.41 5.47024 -121.027 16.8183 -0.526893 -92.9988 -1.13375 0.0679233 -6.58356 -0.510091 -5.37845 -7.05575 -147.912 -4.83977 126.783 5.37483 -0.960008 87.7778 17.1946 -0.801949 -5.86621 -53.2596 3.27267 85.2029 -1.45569 33.3205 -2.93582 0.973328 -10.3756 -0.895734 -38.3236 -49.9454 -31.8455 -56.3846 -7.76111 91.8374 1.83535 37.0196 5.67875 -6.33762 -10.7934 1.1158 -9.96668 -46.9149 -1.38297 
-147.859 10.9004 82.87 10.0906 14.3757 -93.2329 -70.1915 0 88.8779 88.9266 68.2774 -0.195507 -5.91387 17.3479 4.14835 -174.869 22.7343 -165.548 -178.763 64.5476 -136.1 0.946878 -5.67168 -8.05195 -150.089 6.67152 -120.784 17.3066 -0.619834 -93.2236 -1.04571 0.0614406 -6.57322 -0.460553 -5.0797 -7.00332 -147.87 -4.22298 126.951 5.19185 -0.956732 87.6595 17.5187 -0.842675 -6.03417 -53.2438 3.29117 85.202 -1.45786 33.3434 -2.92639 0.714737 -10.3077 -0.883459 -38.447 -49.7385 -32.3875 -56.342 -7.81782 91.7172 1.83471 37.0352 5.66486 -6.15995 -10.8374 1.11168 -9.82186 -47.0902 -0.810004 
-147.866 10.8898 82.8812 10.1378 14.3787 -93.241 -70.1915 0 88.8779 88.8303 68.2498 -0.151788 -5.91901 17.3067 4.18666 -174.675 22.7565 -165.681 -178.46 64.563 -136.497 0.964597 -6.10926 -8.42005 -150.271 5.83874 -121.077 17.1346 -0.552546 -93.0159 -0.86958 0.0485253 -6.54468 -0.466592 -5.15766 -6.84367 -147.869 -4.33282 127.124 5.06184 -0.953017 87.6158 17.3708 -0.810821 -5.86799 -53.2706 3.22667 85.0849 -1.43859 33.3136 -2.75793 0.71176 -10.3564 -0.886569 -38.0758 -49.5576 -32.0399 -56.3921 -7.84243 91.6628 1.83322 36.9912 5.80566 -6.26791 -10.833 1.11455 -9.86001 -46.8718 -1.09272 
-147.849 10.8753 82.8737 10.1569 14.3777 -93.2253 -70.1915 0 88.8779 88.8622 68.2379 -0.087892 -5.90935 17.3327 4.08234 -174.471 22.8137 -165.769 -178.435 64.5796 -136.573 0.960796 -6.08927 -8.31024 -150.174 5.90245 -121.005 17.3512 -0.563872 -93.0042 -0.654501 0.0329436 -6.5256 -0.513221 -5.43868 -6.90273 -147.884 -4.97997 126.979 5.36313 -0.962682 87.6762 17.2118 -0.778683 -5.70197 -53.2471 3.23465 85.0918 -1.44645 33.3721 -2.76511 0.907045 -10.4703 -0.900016 -37.9833 -49.5872 -31.833 -56.4062 -7.83058 91.6645 1.83039 36.9979 5.75646 -6.21742 -10.8159 1.11286 -9.84382 -46.9091 -1.01409 
-147.851 10.8624 82.9007 10.1585 14.4012 -93.2411 -70.1915 0 88.8779 88.8539 68.2491 -0.127263 -5.99551 17.3116 4.16867 -174.149 22.8691 -165.706 -178.496 64.5823 -136.514 0.969996 -6.14963 -8.56499 -150.169 5.75742 -121.11 17.4341 -0.58958 -93.0783 -0.69026 0.0350403 -6.47548 -0.509061 -5.35607 -7.11692 -147.784 -4.82417 126.917 5.30064 -0.961574 87.6418 17.3883 -0.805897 -5.82952 -53.1917 3.28989 85.1959 -1.46818 33.3874 -2.99218 0.764298 -10.3427 -0.887307 -38.2861 -49.5725 -32.3777 -56.4288 -7.85387 91.6255 1.80356 36.8887 5.70942 -6.16128 -10.7415 1.10998 -9.75749 -47.0875 -0.617242 
-147.846 10.866 82.875 10.1509 14.4514 -93.2094 -70.1915 0 88.8779 88.7861 68.2303 0.0253807 -6.01281 17.3068 4.15197 -173.632 22.9337 -165.888 -177.971 64.6078 -136.965 0.963458 -5.88167 -8.4402 -150.046 6.10218 -121.08 17.5484 -0.605713 -93.1085 -0.666283 0.034183 -6.47443 -0.49069 -5.24721 -7.09186 -147.788 -4.75291 126.797 5.18146 -0.955014 87.7171 17.336 -0.792032 -5.75244 -53.2174 3.12654 84.8051 -1.42425 33.3115 -2.59831 0.768642 -10.295 -0.884268 -38.2763 -49.9018 -31.8331 -56.3208 -7.79197 91.7061 1.82444 37.0158 5.68907 -6.12315 -10.8374 1.1107 -9.80241 -46.8915 -0.902234 
-147.853 10.8869 82.876 10.0882 14.4581 -93.2183 -70.1915 0 88.8779 89.0051 68.2498 -0.211469 -6.12731 17.3132 4.19852 -173.016 22.9959 -165.989 -177.796 64.5772 -136.937 0.962735 -5.51228 -8.4995 -149.869 6.49004 -121.218 17.7831 -0.633649 -93.1505 -0.6063 0.0329299 -6.4687 -0.483921 -5.19802 -7.11847 -147.809 -4.95472 126.719 5.47478 -0.967969 87.6365 17.2574 -0.771585 -5.63888 -53.1778 3.14784 84.8269 -1.42531 33.3874 -2.51786 0.608997 -10.5254 -0.89498 -37.8004 -49.3923 -31.829 -56.2422 -7.77304 91.7858 1.82937 37.0737 5.58201 -6.05184 -10.884 1.10965 -9.7022 -46.9411 -0.559835 
